<svg width="1024" height="544" viewBox="0 0 1024 544" fill="none" xmlns="http://www.w3.org/2000/svg">
<g clip-path="url(#clip0)">
<g filter="url(#filter0_ddd)">
<rect x="46" y="52" width="931" height="439" rx="25" fill="white"/>
</g>
<path d="M240.523 184.75L216.477 241.422H208.883L177.242 167.734L170.07 165.484L170.492 158.453H205.93L206.352 165.484L199.32 167.734L221.539 222.297H214.648L234.336 172.375L240.523 184.75ZM261.055 241.422L228.992 167.734L221.961 165.484L222.383 158.453H258.945L259.367 165.484L250.508 167.734L273.148 222.297H267.242L287.633 167.734L278.07 165.484L278.492 158.453H307.32L307.742 165.484L300.43 167.734L268.648 241.422H261.055ZM338.258 242.125C331.695 242.125 325.93 240.812 320.961 238.188C315.992 235.469 312.102 231.766 309.289 227.078C306.477 222.297 305.07 216.859 305.07 210.766C305.07 203.828 306.664 197.922 309.852 193.047C313.039 188.172 317.211 184.469 322.367 181.938C327.523 179.406 333.008 178.141 338.82 178.141C345.102 178.141 350.586 179.453 355.273 182.078C360.055 184.703 363.758 188.406 366.383 193.188C369.102 197.875 370.461 203.266 370.461 209.359C370.461 215.547 369.008 221.125 366.102 226.094C363.195 230.969 359.305 234.859 354.43 237.766C349.648 240.672 344.258 242.125 338.258 242.125ZM339.664 233.125C342.008 233.125 343.977 232.375 345.57 230.875C347.258 229.375 348.523 227.172 349.367 224.266C350.305 221.359 350.773 217.891 350.773 213.859C350.773 205.797 349.461 199.234 346.836 194.172C344.305 189.109 340.883 186.578 336.57 186.578C333.102 186.578 330.289 188.406 328.133 192.062C326.07 195.625 325.039 200.5 325.039 206.688C325.039 211.656 325.648 216.156 326.867 220.188C328.18 224.219 329.914 227.406 332.07 229.75C334.32 232 336.852 233.125 339.664 233.125ZM378.055 241L377.633 234.531L386.352 232.141C386.445 231.766 386.539 230.922 386.633 229.609C386.727 228.203 386.82 226.516 386.914 224.547C387.008 222.484 387.055 220.328 387.055 218.078L387.195 207.531C387.195 204.719 387.102 202.234 386.914 200.078C386.727 197.828 386.398 195.484 385.93 193.047L376.93 191.078V184.75L401.258 178.422L405.055 180.812L404.492 191.922L404.914 192.062C407.539 186.812 410.211 183.25 412.93 181.375C415.742 179.5 418.648 178.562 421.648 178.562C424.18 178.562 426.383 179.266 428.258 180.672C430.133 182.078 431.07 184.281 431.07 187.281C431.07 190.281 430.039 192.625 427.977 194.312C426.008 196 423.617 196.844 420.805 196.844C418.555 196.844 416.539 196.469 414.758 195.719C412.977 194.969 411.055 193.562 408.992 191.5L412.93 191.781C411.43 192.812 410.023 194.125 408.711 195.719C407.492 197.312 406.367 199.141 405.336 201.203L405.477 212.312C405.57 215.781 405.664 218.922 405.758 221.734C405.852 224.453 405.945 226.75 406.039 228.625C406.133 230.406 406.18 231.578 406.18 232.141L418.414 234.25L417.992 241H378.055ZM482.68 242.828L478.883 240.719L479.023 231.578L478.602 231.438C476.258 235.469 473.633 238.328 470.727 240.016C467.82 241.609 464.82 242.406 461.727 242.406C456.758 242.406 452.164 241.141 447.945 238.609C443.727 236.078 440.352 232.562 437.82 228.062C435.289 223.469 434.023 218.172 434.023 212.172C434.023 206.922 435.008 202.234 436.977 198.109C438.945 193.891 441.57 190.328 444.852 187.422C448.133 184.422 451.789 182.172 455.82 180.672C459.852 179.078 463.977 178.281 468.195 178.281C469.977 178.281 471.805 178.469 473.68 178.844C475.555 179.125 477.102 179.594 478.32 180.25C478.32 178.469 478.273 176.453 478.18 174.203C478.18 171.953 478.133 169.75 478.039 167.594C478.039 165.438 477.992 163.469 477.898 161.688C477.898 159.906 477.852 158.5 477.758 157.469L467.211 155.922L466.93 149.875L493.789 142.984L497.586 145.375C497.305 151.188 497.023 156.578 496.742 161.547C496.555 166.422 496.461 171.578 496.461 177.016L496.32 209.641C496.32 214.234 496.414 217.984 496.602 220.891C496.883 223.703 497.117 226.141 497.305 228.203L506.586 230.312V236.359L482.68 242.828ZM468.477 228.766C469.977 228.766 471.664 228.297 473.539 227.359C475.508 226.422 477.148 224.875 478.461 222.719V191.5C477.242 189.719 475.742 188.5 473.961 187.844C472.18 187.094 470.398 186.719 468.617 186.719C464.211 186.719 460.602 188.547 457.789 192.203C454.977 195.859 453.57 200.875 453.57 207.25C453.57 214.188 455.023 219.531 457.93 223.281C460.836 226.938 464.352 228.766 468.477 228.766ZM535.555 242.125C531.617 242.125 527.727 241.703 523.883 240.859C520.039 239.922 516.758 238.75 514.039 237.344L513.336 220.75H522.477L525.43 230.875C528.992 233.031 532.695 234.109 536.539 234.109C539.445 234.109 541.648 233.547 543.148 232.422C544.648 231.203 545.398 229.609 545.398 227.641C545.398 225.578 544.555 223.844 542.867 222.438C541.273 220.938 537.945 219.203 532.883 217.234C525.945 214.703 521.117 211.938 518.398 208.938C515.68 205.938 514.32 202.188 514.32 197.688C514.32 193.844 515.492 190.469 517.836 187.562C520.18 184.562 523.461 182.266 527.68 180.672C531.898 178.984 536.773 178.141 542.305 178.141C545.305 178.141 548.352 178.422 551.445 178.984C554.539 179.547 557.117 180.297 559.18 181.234L560.727 197.547H551.727L548.633 187.562C547.695 187 546.523 186.578 545.117 186.297C543.805 185.922 542.539 185.734 541.32 185.734C538.508 185.734 536.258 186.344 534.57 187.562C532.883 188.781 532.039 190.422 532.039 192.484C532.039 194.641 533.07 196.516 535.133 198.109C537.195 199.609 540.945 201.484 546.383 203.734C552.57 206.266 556.977 208.984 559.602 211.891C562.227 214.703 563.539 218.219 563.539 222.438C563.539 228.344 560.914 233.125 555.664 236.781C550.508 240.344 543.805 242.125 535.555 242.125Z" fill="#3F51B5"/>
<path d="M610.93 242.125C606.898 242.125 603.664 240.625 601.227 237.625C598.789 234.625 597.57 230.781 597.57 226.094C597.57 219.438 598.789 213.203 601.227 207.391C603.758 201.578 607.039 196.469 611.07 192.062C615.102 187.656 619.508 184.234 624.289 181.797C629.164 179.266 633.898 178 638.492 178C641.398 178 643.883 178.797 645.945 180.391C648.102 181.984 650.258 184.188 652.414 187L647.492 191.5C645.992 190.094 644.305 189.062 642.43 188.406C640.555 187.75 638.633 187.422 636.664 187.422C633.945 187.422 631.367 188.312 628.93 190.094C626.492 191.781 624.336 194.219 622.461 197.406C620.68 200.5 619.273 204.156 618.242 208.375C617.305 212.5 616.836 217 616.836 221.875C616.836 223.938 617.07 225.531 617.539 226.656C618.102 227.781 618.852 228.344 619.789 228.344C621.008 228.344 622.742 227.125 624.992 224.688C627.242 222.156 629.727 218.781 632.445 214.562C635.164 210.344 637.789 205.703 640.32 200.641C642.852 195.578 644.914 190.516 646.508 185.453L648.758 183.766L653.68 179.266H665.773C664.273 183.859 662.773 188.688 661.273 193.75C659.773 198.812 658.461 203.734 657.336 208.516C656.211 213.297 655.273 217.562 654.523 221.312C653.773 224.969 653.398 227.781 653.398 229.75C655.273 228.625 657.102 227.172 658.883 225.391C660.758 223.516 662.633 221.406 664.508 219.062L668.867 223.984C666.523 227.266 663.852 230.312 660.852 233.125C657.852 235.844 654.758 238.047 651.57 239.734C648.477 241.328 645.523 242.125 642.711 242.125C640.461 242.125 638.68 241.469 637.367 240.156C636.148 238.844 635.539 236.969 635.539 234.531C635.539 233.031 635.82 230.875 636.383 228.062C636.945 225.156 637.836 221.453 639.055 216.953C640.367 212.359 642.008 206.781 643.977 200.219H645.242C642.336 208.844 638.961 216.297 635.117 222.578C631.367 228.766 627.43 233.594 623.305 237.062C619.273 240.438 615.148 242.125 610.93 242.125ZM689.539 242.125C685.602 242.125 682.133 241.562 679.133 240.438C676.227 239.312 673.977 237.859 672.383 236.078C670.789 234.203 669.992 232.234 669.992 230.172C669.992 228.391 670.367 226.703 671.117 225.109C671.961 223.516 672.992 222.109 674.211 220.891C677.211 224.453 680.445 227.406 683.914 229.75C687.477 232 690.523 233.125 693.055 233.125C694.93 233.125 696.477 232.656 697.695 231.719C698.914 230.781 699.523 229.281 699.523 227.219C699.523 225.625 698.867 224.078 697.555 222.578C696.336 221.078 693.664 219.062 689.539 216.531C686.633 214.562 684.242 212.734 682.367 211.047C680.586 209.266 679.273 207.531 678.43 205.844C677.68 204.062 677.305 202.141 677.305 200.078C677.305 195.766 678.477 191.969 680.82 188.688C683.258 185.406 686.492 182.828 690.523 180.953C694.555 179.078 698.961 178.141 703.742 178.141C707.023 178.141 709.977 178.562 712.602 179.406C715.227 180.156 717.336 181.328 718.93 182.922C720.523 184.516 721.32 186.531 721.32 188.969C721.32 190.75 720.992 192.344 720.336 193.75C719.68 195.156 718.789 196.422 717.664 197.547C714.477 193.703 711.523 190.938 708.805 189.25C706.086 187.469 703.555 186.578 701.211 186.578C698.961 186.578 697.18 187.188 695.867 188.406C694.555 189.625 693.898 191.125 693.898 192.906C693.898 194.031 694.18 195.062 694.742 196C695.305 196.938 696.336 198.062 697.836 199.375C699.43 200.594 701.727 202.234 704.727 204.297C707.633 206.266 709.93 208.094 711.617 209.781C713.305 211.375 714.523 212.969 715.273 214.562C716.023 216.156 716.398 217.938 716.398 219.906C716.398 224.031 715.18 227.781 712.742 231.156C710.398 234.531 707.164 237.203 703.039 239.172C699.008 241.141 694.508 242.125 689.539 242.125ZM766.602 242.125C762.57 242.125 759.336 240.625 756.898 237.625C754.461 234.625 753.242 230.781 753.242 226.094C753.242 219.438 754.461 213.203 756.898 207.391C759.43 201.578 762.711 196.469 766.742 192.062C770.773 187.656 775.18 184.234 779.961 181.797C784.836 179.266 789.57 178 794.164 178C797.07 178 799.555 178.797 801.617 180.391C803.773 181.984 805.93 184.188 808.086 187L803.164 191.5C801.664 190.094 799.977 189.062 798.102 188.406C796.227 187.75 794.305 187.422 792.336 187.422C789.617 187.422 787.039 188.312 784.602 190.094C782.164 191.781 780.008 194.219 778.133 197.406C776.352 200.5 774.945 204.156 773.914 208.375C772.977 212.5 772.508 217 772.508 221.875C772.508 223.938 772.742 225.531 773.211 226.656C773.773 227.781 774.523 228.344 775.461 228.344C776.68 228.344 778.414 227.125 780.664 224.688C782.914 222.156 785.398 218.781 788.117 214.562C790.836 210.344 793.461 205.703 795.992 200.641C798.523 195.578 800.586 190.516 802.18 185.453L804.43 183.766L809.352 179.266H821.445C819.945 183.859 818.445 188.688 816.945 193.75C815.445 198.812 814.133 203.734 813.008 208.516C811.883 213.297 810.945 217.562 810.195 221.312C809.445 224.969 809.07 227.781 809.07 229.75C810.945 228.625 812.773 227.172 814.555 225.391C816.43 223.516 818.305 221.406 820.18 219.062L824.539 223.984C822.195 227.266 819.523 230.312 816.523 233.125C813.523 235.844 810.43 238.047 807.242 239.734C804.148 241.328 801.195 242.125 798.383 242.125C796.133 242.125 794.352 241.469 793.039 240.156C791.82 238.844 791.211 236.969 791.211 234.531C791.211 233.031 791.492 230.875 792.055 228.062C792.617 225.156 793.508 221.453 794.727 216.953C796.039 212.359 797.68 206.781 799.648 200.219H800.914C798.008 208.844 794.633 216.297 790.789 222.578C787.039 228.766 783.102 233.594 778.977 237.062C774.945 240.438 770.82 242.125 766.602 242.125ZM330.172 402.266C325.484 402.266 320.75 401.703 315.969 400.578C311.281 399.359 307.344 397.859 304.156 396.078L308.375 375.406L317.516 375.125L318.5 389.328C320.094 390.453 322.156 391.391 324.688 392.141C327.219 392.797 329.75 393.125 332.281 393.125C335.656 393.125 338.516 392.656 340.859 391.719C343.203 390.688 344.984 389.281 346.203 387.5C347.516 385.625 348.172 383.422 348.172 380.891C348.172 378.359 347.328 376.25 345.641 374.562C344.047 372.875 341.984 371.375 339.453 370.062C336.922 368.75 334.203 367.484 331.297 366.266C328.391 364.953 325.672 363.453 323.141 361.766C320.609 359.984 318.5 357.875 316.812 355.438C315.219 352.906 314.422 349.766 314.422 346.016C314.422 341.422 315.5 337.344 317.656 333.781C319.812 330.125 322.719 327.078 326.375 324.641C330.031 322.109 334.156 320.188 338.75 318.875C343.344 317.562 348.078 316.906 352.953 316.906C355.484 316.906 358.062 317.094 360.688 317.469C363.312 317.75 365.797 318.172 368.141 318.734C370.484 319.297 372.406 319.953 373.906 320.703L370.672 341.094L361.812 341.375L360.828 327.734C358.109 326.422 354.781 325.766 350.844 325.766C346.156 325.766 342.172 326.938 338.891 329.281C335.609 331.625 333.969 334.859 333.969 338.984C333.969 341.422 334.812 343.531 336.5 345.312C338.188 347 340.297 348.547 342.828 349.953C345.453 351.266 348.219 352.625 351.125 354.031C354.031 355.344 356.797 356.844 359.422 358.531C362.047 360.219 364.156 362.328 365.75 364.859C367.438 367.297 368.281 370.391 368.281 374.141C368.281 379.578 366.5 384.453 362.938 388.766C359.375 392.984 354.688 396.312 348.875 398.75C343.156 401.094 336.922 402.266 330.172 402.266ZM400.484 402.125C393.359 402.125 387.688 400.156 383.469 396.219C379.344 392.188 377.281 386.75 377.281 379.906C377.281 374.281 378.266 368.984 380.234 364.016C382.297 358.953 385.062 354.5 388.531 350.656C392 346.719 396.031 343.672 400.625 341.516C405.219 339.266 410.047 338.141 415.109 338.141C420.547 338.141 424.672 339.266 427.484 341.516C430.297 343.672 431.703 346.484 431.703 349.953C431.703 351.922 431.141 353.984 430.016 356.141C428.984 358.297 427.109 360.547 424.391 362.891C421.672 365.141 417.875 367.578 413 370.203C408.125 372.734 401.844 375.359 394.156 378.078V370.625C399.312 368.562 403.391 366.453 406.391 364.297C409.391 362.141 411.5 359.938 412.719 357.688C413.938 355.438 414.547 353.141 414.547 350.797C414.547 349.297 414.125 348.125 413.281 347.281C412.438 346.344 411.359 345.875 410.047 345.875C407.891 345.875 405.734 347.141 403.578 349.672C401.422 352.203 399.641 355.719 398.234 360.219C396.828 364.719 396.125 369.969 396.125 375.969C396.125 380.375 397.062 383.656 398.938 385.812C400.812 387.969 403.297 389.047 406.391 389.047C408.734 389.047 411.594 388.344 414.969 386.938C418.344 385.531 421.578 382.953 424.672 379.203L428.891 385.531C424.672 391.25 419.984 395.469 414.828 398.188C409.672 400.812 404.891 402.125 400.484 402.125ZM481.625 353.609C479.844 353.609 478.109 354.406 476.422 356C474.734 357.5 473.047 359.656 471.359 362.469C469.766 365.188 468.078 368.422 466.297 372.172C464.047 377.141 462.031 382.203 460.25 387.359C458.562 392.516 457.25 397.062 456.312 401H437.609C438.922 397.062 440.281 392.656 441.688 387.781C443.094 382.812 444.406 377.891 445.625 373.016C446.938 368.141 447.969 363.688 448.719 359.656C449.469 355.625 449.844 352.578 449.844 350.516C448.062 351.641 446.234 353.141 444.359 355.016C442.578 356.797 440.75 359.047 438.875 361.766L434.516 356.141C436.859 352.953 439.531 350 442.531 347.281C445.531 344.469 448.578 342.266 451.672 340.672C454.766 338.984 457.672 338.141 460.391 338.141C462.453 338.141 464 338.703 465.031 339.828C466.062 340.953 466.578 342.828 466.578 345.453C466.578 346.859 466.25 349.344 465.594 352.906C465.031 356.469 464 361.016 462.5 366.547C461 372.078 458.844 378.547 456.031 385.953H455.469C457.812 379.578 460.109 373.531 462.359 367.812C464.703 362 467.094 356.891 469.531 352.484C471.969 347.984 474.547 344.469 477.266 341.938C480.078 339.406 483.172 338.141 486.547 338.141C489.078 338.141 491 338.844 492.312 340.25C493.625 341.562 494.281 343.438 494.281 345.875C494.281 347.75 493.859 349.719 493.016 351.781C492.172 353.844 490.953 355.719 489.359 357.406C488.234 356.281 486.969 355.391 485.562 354.734C484.156 353.984 482.844 353.609 481.625 353.609ZM512.422 401.562L510.875 381.453C510.406 374.422 509.844 368.516 509.188 363.734C508.625 358.859 508.016 354.641 507.359 351.078C504.266 353.609 501.359 357.172 498.641 361.766L493.859 356.703C496.203 353.047 498.688 349.859 501.312 347.141C504.031 344.328 506.703 342.125 509.328 340.531C511.953 338.938 514.391 338.141 516.641 338.141C518.891 338.141 520.625 338.703 521.844 339.828C523.062 340.953 523.953 342.875 524.516 345.594C524.984 348.031 525.453 351.734 525.922 356.703C526.391 361.672 526.812 367.438 527.188 374L528.172 392L524.375 392.562C528.688 388.719 532.25 384.781 535.062 380.75C537.875 376.625 539.984 372.312 541.391 367.812C542.797 363.219 543.5 358.297 543.5 353.047C543.5 350.328 543.266 347.984 542.797 346.016C542.422 344.047 541.906 342.266 541.25 340.672C542.375 339.922 543.734 339.312 545.328 338.844C546.922 338.375 548.469 338.141 549.969 338.141C553.531 338.141 556.203 339.078 557.984 340.953C559.859 342.828 560.797 345.734 560.797 349.672C560.797 353.516 559.766 357.781 557.703 362.469C555.734 367.062 553.016 371.75 549.547 376.531C546.078 381.219 542.234 385.719 538.016 390.031C533.797 394.344 529.484 398.188 525.078 401.562H512.422ZM577.672 402.125C575.141 402.125 573.125 401.516 571.625 400.297C570.219 398.984 569.516 396.875 569.516 393.969C569.516 392.562 569.891 390.453 570.641 387.641C571.484 384.828 572.469 381.641 573.594 378.078C574.719 374.516 575.797 370.953 576.828 367.391C577.953 363.828 578.891 360.547 579.641 357.547C580.391 354.453 580.766 352.109 580.766 350.516C578.984 351.641 577.156 353.141 575.281 355.016C573.5 356.797 571.672 359.047 569.797 361.766L565.297 356.141C567.641 352.953 570.312 350 573.312 347.281C576.312 344.469 579.406 342.266 582.594 340.672C585.875 338.984 588.922 338.141 591.734 338.141C594.266 338.141 596.234 338.844 597.641 340.25C599.047 341.656 599.75 343.672 599.75 346.297C599.75 347.703 599.328 349.859 598.484 352.766C597.734 355.578 596.797 358.812 595.672 362.469C594.641 366.125 593.562 369.781 592.438 373.438C591.312 377 590.375 380.281 589.625 383.281C588.875 386.188 588.5 388.344 588.5 389.75C590.375 388.625 592.203 387.172 593.984 385.391C595.859 383.516 597.734 381.406 599.609 379.062L603.969 383.984C601.625 387.266 598.953 390.312 595.953 393.125C592.953 395.844 589.859 398.047 586.672 399.734C583.578 401.328 580.578 402.125 577.672 402.125ZM595.25 326.75C591.781 326.75 589.156 325.766 587.375 323.797C585.594 321.828 584.703 319.391 584.703 316.484C584.703 314.422 585.219 312.453 586.25 310.578C587.281 308.609 588.734 307.062 590.609 305.938C592.578 304.812 594.781 304.25 597.219 304.25C600.594 304.25 603.125 305.234 604.812 307.203C606.594 309.078 607.484 311.375 607.484 314.094C607.484 316.25 606.969 318.312 605.938 320.281C605 322.25 603.594 323.844 601.719 325.062C599.844 326.188 597.688 326.75 595.25 326.75ZM643.484 347.562C640.953 347.562 638.609 348.875 636.453 351.5C634.297 354.125 632.562 357.594 631.25 361.906C630.031 366.219 629.469 370.906 629.562 375.969C629.656 380.375 630.594 383.609 632.375 385.672C634.156 387.734 636.453 388.766 639.266 388.766C641.609 388.766 644.328 388.016 647.422 386.516C650.609 385.016 653.703 382.578 656.703 379.203L660.922 385.531C656.703 391.25 652.016 395.469 646.859 398.188C641.797 400.812 637.203 402.125 633.078 402.125C628.766 402.125 624.875 401.234 621.406 399.453C618.031 397.578 615.312 395 613.25 391.719C611.188 388.344 610.156 384.406 610.156 379.906C610.156 374.75 611.094 369.688 612.969 364.719C614.938 359.656 617.609 355.156 620.984 351.219C624.453 347.188 628.531 344 633.219 341.656C637.906 339.312 643.016 338.141 648.547 338.141C653.141 338.141 656.844 339.125 659.656 341.094C662.469 342.969 663.875 345.688 663.875 349.25C663.875 350.938 663.5 352.625 662.75 354.312C662.094 355.906 661.203 357.312 660.078 358.531C657.547 355.156 654.688 352.484 651.5 350.516C648.406 348.547 645.734 347.562 643.484 347.562ZM690.031 402.125C682.906 402.125 677.234 400.156 673.016 396.219C668.891 392.188 666.828 386.75 666.828 379.906C666.828 374.281 667.812 368.984 669.781 364.016C671.844 358.953 674.609 354.5 678.078 350.656C681.547 346.719 685.578 343.672 690.172 341.516C694.766 339.266 699.594 338.141 704.656 338.141C710.094 338.141 714.219 339.266 717.031 341.516C719.844 343.672 721.25 346.484 721.25 349.953C721.25 351.922 720.688 353.984 719.562 356.141C718.531 358.297 716.656 360.547 713.938 362.891C711.219 365.141 707.422 367.578 702.547 370.203C697.672 372.734 691.391 375.359 683.703 378.078V370.625C688.859 368.562 692.938 366.453 695.938 364.297C698.938 362.141 701.047 359.938 702.266 357.688C703.484 355.438 704.094 353.141 704.094 350.797C704.094 349.297 703.672 348.125 702.828 347.281C701.984 346.344 700.906 345.875 699.594 345.875C697.438 345.875 695.281 347.141 693.125 349.672C690.969 352.203 689.188 355.719 687.781 360.219C686.375 364.719 685.672 369.969 685.672 375.969C685.672 380.375 686.609 383.656 688.484 385.812C690.359 387.969 692.844 389.047 695.938 389.047C698.281 389.047 701.141 388.344 704.516 386.938C707.891 385.531 711.125 382.953 714.219 379.203L718.438 385.531C714.219 391.25 709.531 395.469 704.375 398.188C699.219 400.812 694.438 402.125 690.031 402.125Z" fill="black"/>
</g>
<defs>
<filter id="filter0_ddd" x="4" y="34" width="1015" height="523" filterUnits="userSpaceOnUse" color-interpolation-filters="sRGB">
<feFlood flood-opacity="0" result="BackgroundImageFix"/>
<feColorMatrix in="SourceAlpha" type="matrix" values="0 0 0 0 0 0 0 0 0 0 0 0 0 0 0 0 0 0 127 0"/>
<feOffset dy="1.59602"/>
<feGaussianBlur stdDeviation="1.39652"/>
<feColorMatrix type="matrix" values="0 0 0 0 0 0 0 0 0 0 0 0 0 0 0 0 0 0 0.0121168 0"/>
<feBlend mode="normal" in2="BackgroundImageFix" result="effect1_dropShadow"/>
<feColorMatrix in="SourceAlpha" type="matrix" values="0 0 0 0 0 0 0 0 0 0 0 0 0 0 0 0 0 0 127 0"/>
<feOffset dy="5.36071"/>
<feGaussianBlur stdDeviation="4.69062"/>
<feColorMatrix type="matrix" values="0 0 0 0 0 0 0 0 0 0 0 0 0 0 0 0 0 0 0.0178832 0"/>
<feBlend mode="normal" in2="effect1_dropShadow" result="effect2_dropShadow"/>
<feColorMatrix in="SourceAlpha" type="matrix" values="0 0 0 0 0 0 0 0 0 0 0 0 0 0 0 0 0 0 127 0"/>
<feOffset dy="24"/>
<feGaussianBlur stdDeviation="21"/>
<feColorMatrix type="matrix" values="0 0 0 0 0 0 0 0 0 0 0 0 0 0 0 0 0 0 0.03 0"/>
<feBlend mode="normal" in2="effect2_dropShadow" result="effect3_dropShadow"/>
<feBlend mode="normal" in="SourceGraphic" in2="effect3_dropShadow" result="shape"/>
</filter>
<clipPath id="clip0">
<rect width="1024" height="544" fill="white"/>
</clipPath>
</defs>
</svg>
